<mxfile host="65bd71144e">
    <diagram id="l6qNFFdoWj_om2xz9Eb6" name="Page-1">
        <mxGraphModel dx="3386" dy="802" grid="1" gridSize="10" guides="1" tooltips="1" connect="1" arrows="1" fold="1" page="1" pageScale="1" pageWidth="1100" pageHeight="1700" math="0" shadow="0">
            <root>
                <mxCell id="0"/>
                <mxCell id="1" parent="0"/>
                <mxCell id="2" value="&lt;font style=&quot;font-size: 5px;&quot;&gt;https://sequencediagram.org/index.html#initialData=C4S2BsFMAIGkDtKXNAIiAhgWwPbwCYDOAUMQPRkBmkwAxgBbS0bjiHQYBOMI80OnDPADmkcmXA4cAB3ZcefAJ7JJAd1LSuoWiE3xg0AMTd80XvkgAPAHT1gWcMU2dtuoQcMAjcAFcYWDF5rWkISZ1c9D2FuSD4AoIArMK0QHUijaKQ+AFkaFgB5aVA8QmskpxS09wyYvnzOC05S8vDUt30arOgABXAMWkh6xrLklzb0w0zY6ABlEAAvQaKQEpGKsaqOydrZ4EUoQuL4ZtGI6u2ugBVBY5BY4BngDGBINdbNgwxpEDJ8Z4xPBhCK8knh1mcOpJmOAAILdACSxH6wAERmkPk40ig0B8wM4pHMVls9nAAFpjJB8AA+eLwYKhABcAGEhNB4dB6BgAG4wFgoYD0GCEPZQQgAfmIhJsdgcAB4vL5IKTSbT6YQGQAJSDcADkclY0AFMCZMxmkoIRJlZIp1NVSQZ0BZfHZnJ5HANRugiAGoS4imgCW5QNonF0wAlUuJcousWVdvV0C1uv1-MFAaDhBDYeI8fJU3gVMjVoZM2QkFoBk9Zaw92gqjAjAwTD6oQAvAAiWh4J68bXtnOBOlJPO1KlzRaHFbHEYOp1sjncmCe7jUbjwAbQSioz3jpZHdiUHzro7EXeT1bDmMF+MOmYYyAAGg52sgesNaZAWGkAmAA8ShBHLIxxFPcpxOWdWRdRd3xgFcX3XGAt04GDdn2UCSk3I8KynU8QPPadL3zGlBxnWZ7yfQVkxQz9vxcP8hwAq9CwtaUSVvMsKxQq1oGrWt6wFDhmyBdhoSgUxO27Qc+3okZANiKlciecB8PAnooCBGBREQQQXi4klN23NMayU9heH4DFoChFgOG+CVFIKZYL0YgQhFEKkAAoACYAEorNhBEHV6SANM3GgGGgGt3RQHBKBQ4yWHYP4nmsed6wNVRAmAFLiD8uF4WVQwXJESAPJ8+zlMcgiEyTV92EUHALKSjAAEJ3NQPAdQMJDRErTkDDAN8zIAKRmfIADkDM4AJgGa7ziE4TwcEsfgeWQ8qVJGIxlFYHBVAZABVQheGEFDrACaQIpoegcHwJ8AB14DAbVnhgHBVpQrt4FWl5THithoCa6AHqEUwQ2C3TPW4pC4ryNh7sQfpGH4xtoEEfAVmgTwfGAFE6Qe6AhpwMy+R4qAa30Uy+E9LhBH9fGQdRmgMT4PAYEkERE0ubIABloGFUMRGsUhcyYx40I2+01OC4FoC056IbTKHDKFEDKfM5C-JskAJTFg5KpOckircrzfJwaE8sC9SZeoOhGEikmYpQ4U0MS-4UvZNKUAysBstyhECqNkqTd19CqodGq33qxr-la9r4E6yaevfZ4zGAQa+BG8bJum2b5sW5a3u1VC9f3TbDG2tQDqOjnPTOr5LoFG74aenTXvez1Pu+yk+dVgH-iB+AGbBl69IcSandV+HgvC5HBLRjGsZxvBrHxwniYNXiKbMKm0xpjA6b4BnuGAZn+EQSy8BOjUud5-njqFmTCNHM99dIoKQrl1vR5QaHPSOxY1YNQ1mbayXxtangWKHA2hUbjGx8n7eEltpaITCnbXkBpHZ-0ga7ZKqUQDpUyr7EB-l8qG1gUHHyL9S6SwjnVIBfcnixw6l1AQScBQpwGmrTOE0kI5zmgtJaK0i5ULAmXCuu0q7HVOudBu11boDxbiPQuyEO54C7qYf+kAcFNmBgQJg3AR6Q30r-NMmjCBT0RnWBsc8MDoxwJjbGuMV4ZyJofDeZN7hq2ppwWmA8OB6OPqfVmF8ObXx5j3AWwgH4iyIr0fogwGjahnO-GWw8FYwCViotM7Y4kbiGH2BxS94DEFyQk4Yw45LXhIjQl80Ao6yxwM1YW1TGJEXyU0N+VsYBpKXIrYxytLIgGFPwWKAhGjsFnkaEAyF4A+CwJ4IuDNpChgGMQdp0DA6lVNubAKAAxVBl0UJWD0BYUwYztTaOangghPscrELygHchWz1mkRqqnMwatQR8F4c8IWAiC7vReUkLaKgJHQEOlIuu0gnyKN0solC5ymgPnxtCWgPg+gQxwEpaAyzUiPn8aDAx6SOQkhSg9NeO9eQ+P3gSxmJ9OCUoicdZp-5KnMQsKxBwDofDSCSr0mAqB8jZCsQJAUQyvSQFUCSse7JP4vXwKQXE2pyTokxFABSsMJYJnZLQcAqQADW3c8CCT+qjWxC9HFgnWq-J+QFrhCCOvcR4L1SJMk5MVGG2KQCmDMp6YANxHUdGFC9RVeIVUYixCVEOWqHQ6r1bQQ1ZzD49zQmauxhTca4XFja1po57W3CdU8F4rr3WiAnqm7128UL+odXcINRaxDECVZwcNaqo2QJjfOXVBqjXJs0Wmi1RSIEThzWy-NgaHgNpLa5flfNIFmB9YymtBb60hqbWGwwqrI1UlKe00icae1JpQjkvoeTEmcHbBmsEu7z2ySYuOutk6XWSyZES3kOKcDDO4AARz8MMlEhpT5+oDY+nuI9eAAekNqAIiBV26TMvQzWeViAPsLc+5yTyEEMhhPgUwYr2B3xECASgdxTCAwA1HZCUGppCFrE1POgj4Wof0M64tktdmoiEP6XA+B0VsyGS8R6Ih4aCUQFKxFdYgQ4tPZSJp-yhHIRvPOQUXBTBRyufjeEOosANKkQB3gXIcCGpQoeY8U4B7sIMHKl4KZv4cGEIOJpxAgA&lt;/font&gt;" style="rounded=1;whiteSpace=wrap;html=1;align=center;" parent="1" vertex="1">
                    <mxGeometry x="-1790" y="130" width="2080" height="410" as="geometry"/>
                </mxCell>
            </root>
        </mxGraphModel>
    </diagram>
</mxfile>